<svg xmlns="http://www.w3.org/2000/svg" width="32" height="32" viewBox="0 0 24 24">
    <path fill="currentColor" fill-rule="evenodd" d="M17.38 13.7c1.71 0 3.11 1.38 3.11 3.09 0 1.7-1.4 3.09-3.12 3.09s-3.12-1.39-3.12-3.1 1.39-3.1 3.11-3.1Zm0 1.5c-.89 0-1.62.71-1.62 1.59s.72 1.59 1.61 1.59c.88 0 1.61-.72 1.61-1.6s-.73-1.6-1.62-1.6Zm-7.31.88a.749.749 0 1 1 0 1.5H3.76c-.42 0-.75-.34-.75-.75 0-.42.33-.75.75-.75h6.3ZM6.1 3.98c1.71 0 3.11 1.39 3.11 3.09s-1.4 3.09-3.12 3.09-3.12-1.388-3.12-3.1c0-1.71 1.39-3.1 3.11-3.1Zm0 1.5c-.89 0-1.62.71-1.62 1.59s.72 1.59 1.61 1.59 1.61-.72 1.61-1.6c0-.89-.73-1.6-1.62-1.6Zm13.07.9a.749.749 0 1 1 0 1.5h-6.3c-.42 0-.75-.34-.75-.75 0-.42.33-.75.75-.75z"/>
</svg>